<?xml version="1.0" encoding="utf-8"?>
<svg xmlns="http://www.w3.org/2000/svg" fill="none" viewBox="0 0 149 45" height="45" width="149">
<rect fill="black" rx="4.5" height="43" width="147.5" y="1" x="0.5"/>
<rect stroke="#A6A6A6" rx="4.5" height="43" width="147.5" y="1" x="0.5"/>
<path fill="white" d="M74.9499 24.4264C72.3627 24.4264 70.254 26.3943 70.254 29.1047C70.254 31.7986 72.3627 33.783 74.9499 33.783C77.5382 33.783 79.6469 31.7986 79.6469 29.1047C79.6458 26.3943 77.5371 24.4264 74.9499 24.4264ZM74.9499 31.9416C73.532 31.9416 72.3099 30.7723 72.3099 29.1058C72.3099 27.4217 73.5331 26.27 74.9499 26.27C76.3678 26.27 77.5899 27.4217 77.5899 29.1058C77.5899 30.7712 76.3678 31.9416 74.9499 31.9416ZM64.7045 24.4264C62.1173 24.4264 60.0086 26.3943 60.0086 29.1047C60.0086 31.7986 62.1173 33.783 64.7045 33.783C67.2928 33.783 69.4015 31.7986 69.4015 29.1047C69.4015 26.3943 67.2928 24.4264 64.7045 24.4264ZM64.7045 31.9416C63.2866 31.9416 62.0645 30.7723 62.0645 29.1058C62.0645 27.4217 63.2877 26.27 64.7045 26.27C66.1224 26.27 67.3445 27.4217 67.3445 29.1058C67.3456 30.7712 66.1224 31.9416 64.7045 31.9416ZM52.5187 25.863V27.8474H57.2685C57.1266 28.9639 56.7548 29.779 56.1872 30.3455C55.4964 31.0363 54.4151 31.7986 52.5187 31.7986C49.5949 31.7986 47.3091 29.4413 47.3091 26.5175C47.3091 23.5937 49.5949 21.2364 52.5187 21.2364C54.0961 21.2364 55.2478 21.8568 56.0981 22.6543L57.4984 21.254C56.3104 20.1199 54.7341 19.252 52.5187 19.252C48.5136 19.252 45.1465 22.5124 45.1465 26.5175C45.1465 30.5226 48.5136 33.783 52.5187 33.783C54.6802 33.783 56.3115 33.0735 57.5864 31.7447C58.8976 30.4335 59.3057 28.5899 59.3057 27.1016C59.3057 26.6418 59.2705 26.2161 59.199 25.8619H52.5187V25.863ZM102.357 27.4041C101.968 26.3591 100.78 24.4264 98.3524 24.4264C95.9423 24.4264 93.9392 26.3228 93.9392 29.1047C93.9392 31.7271 95.9247 33.783 98.5823 33.783C100.726 33.783 101.967 32.4718 102.482 31.7095L100.887 30.6458C100.355 31.4257 99.6284 31.9394 98.5823 31.9394C97.5373 31.9394 96.7926 31.4609 96.3141 30.5215L102.57 27.9343L102.357 27.4041ZM95.9775 28.9639C95.9247 27.1555 97.3778 26.2348 98.4239 26.2348C99.239 26.2348 99.9298 26.6429 100.161 27.227L95.9775 28.9639ZM90.8922 33.5003H92.947V19.7492H90.8922V33.5003ZM87.524 25.4725H87.4536C86.9927 24.9225 86.1061 24.4264 84.9907 24.4264C82.651 24.4264 80.5071 26.4823 80.5071 29.1234C80.5071 31.7458 82.651 33.7841 84.9907 33.7841C86.1072 33.7841 86.9927 33.288 87.4536 32.7215H87.524V33.3947C87.524 35.1844 86.567 36.1414 85.0259 36.1414C83.7675 36.1414 82.9876 35.2383 82.6686 34.476L80.8789 35.2207C81.3926 36.4604 82.7566 37.985 85.0259 37.985C87.436 37.985 89.4743 36.5671 89.4743 33.1109V24.7113H87.5251V25.4725H87.524ZM85.1678 31.9416C83.7499 31.9416 82.563 30.7536 82.563 29.1234C82.563 27.4745 83.7499 26.27 85.1678 26.27C86.567 26.27 87.6659 27.4745 87.6659 29.1234C87.6659 30.7536 86.567 31.9416 85.1678 31.9416ZM111.987 19.7492H107.069V33.5003H109.12V28.2907H111.986C114.261 28.2907 116.498 26.644 116.498 24.0205C116.498 21.397 114.262 19.7492 111.987 19.7492ZM112.04 26.3767H109.12V21.6632H112.04C113.574 21.6632 114.445 22.9337 114.445 24.0205C114.445 25.0853 113.574 26.3767 112.04 26.3767ZM124.725 24.4022C123.239 24.4022 121.7 25.0567 121.063 26.5076L122.885 27.2677C123.274 26.5076 124 26.259 124.76 26.259C125.822 26.259 126.901 26.8959 126.918 28.0278V28.1697C126.546 27.9574 125.75 27.6395 124.778 27.6395C122.814 27.6395 120.814 28.7186 120.814 30.7349C120.814 32.5752 122.425 33.7599 124.229 33.7599C125.608 33.7599 126.369 33.1406 126.847 32.4146H126.917V33.4761H128.899V28.2038C128.9 25.764 127.077 24.4022 124.725 24.4022ZM124.476 31.9383C123.805 31.9383 122.867 31.6017 122.867 30.7701C122.867 29.7086 124.035 29.3016 125.044 29.3016C125.945 29.3016 126.37 29.4963 126.918 29.7614C126.759 31.0363 125.662 31.9383 124.476 31.9383ZM136.118 24.7025L133.765 30.6645H133.694L131.252 24.7025H129.041L132.703 33.035L130.615 37.6704H132.756L138.4 24.7025H136.118ZM117.631 33.5003H119.682V19.7492H117.631V33.5003Z"/>
<path fill="white" d="M52.1599 11.7665C52.1599 12.6883 51.8871 13.422 51.3404 13.9698C50.72 14.621 49.9104 14.9466 48.916 14.9466C47.9634 14.9466 47.1527 14.6166 46.4872 13.9566C45.8206 13.2955 45.4873 12.4771 45.4873 11.5003C45.4873 10.5224 45.8206 9.70403 46.4872 9.04403C47.1527 8.38293 47.9634 8.05293 48.916 8.05293C49.389 8.05293 49.8411 8.14533 50.2701 8.32903C50.7002 8.51383 51.0445 8.75913 51.3019 9.06603L50.7222 9.64683C50.2855 9.12433 49.6838 8.86363 48.9149 8.86363C48.2197 8.86363 47.6191 9.10783 47.112 9.59623C46.6049 10.0846 46.3519 10.7193 46.3519 11.4992C46.3519 12.2791 46.6049 12.9138 47.112 13.4022C47.6191 13.8906 48.2197 14.1348 48.9149 14.1348C49.6519 14.1348 50.2668 13.8895 50.7585 13.3978C51.0775 13.0777 51.2623 12.6322 51.3118 12.0613H48.9149V11.2682H52.1126C52.1456 11.4409 52.1599 11.607 52.1599 11.7665Z"/>
<path fill="white" d="M57.231 9.00999H54.2258V11.1022H56.9362V11.8953H54.2258V13.9875H57.231V14.7993H53.3777V8.19929H57.231V9.00999Z"/>
<path fill="white" d="M60.807 14.7993H59.9589V9.00999H58.1153V8.19929H62.6506V9.00999H60.807V14.7993Z"/>
<path fill="white" d="M65.9318 14.7993V8.19929H66.7799V14.7993H65.9318Z"/>
<path fill="white" d="M70.541 14.7993H69.6929V9.00999H67.8493V8.19929H72.3846V9.00999H70.541V14.7993Z"/>
<path fill="white" d="M80.9699 13.9468C80.3209 14.6134 79.5146 14.9467 78.5499 14.9467C77.5852 14.9467 76.7789 14.6134 76.131 13.9468C75.482 13.2802 75.1586 12.464 75.1586 11.4993C75.1586 10.5346 75.482 9.71838 76.131 9.05178C76.7789 8.38518 77.5852 8.05078 78.5499 8.05078C79.5091 8.05078 80.3143 8.38628 80.9655 9.05618C81.6167 9.72608 81.9423 10.5401 81.9423 11.4993C81.9423 12.464 81.6178 13.2802 80.9699 13.9468ZM76.7569 13.3935C77.2453 13.8885 77.8426 14.1349 78.5499 14.1349C79.2572 14.1349 79.8556 13.8874 80.3429 13.3935C80.8313 12.8985 81.0766 12.2671 81.0766 11.4993C81.0766 10.7315 80.8313 10.1001 80.3429 9.60508C79.8556 9.11008 79.2572 8.86368 78.5499 8.86368C77.8426 8.86368 77.2453 9.11118 76.7569 9.60508C76.2696 10.1001 76.0243 10.7315 76.0243 11.4993C76.0243 12.2671 76.2696 12.8985 76.7569 13.3935Z"/>
<path fill="white" d="M83.1325 14.7993V8.19929H84.1643L87.3719 13.333H87.4082L87.3719 12.0614V8.19929H88.22V14.7993H87.3345L83.9784 9.41589H83.9421L83.9784 10.6875V14.7993H83.1325Z"/>
<path stroke-miterlimit="10" stroke-width="0.2" stroke="white" d="M52.1599 11.7665C52.1599 12.6883 51.8871 13.422 51.3404 13.9698C50.72 14.621 49.9104 14.9466 48.916 14.9466C47.9634 14.9466 47.1527 14.6166 46.4872 13.9566C45.8206 13.2955 45.4873 12.4771 45.4873 11.5003C45.4873 10.5224 45.8206 9.70403 46.4872 9.04403C47.1527 8.38293 47.9634 8.05293 48.916 8.05293C49.389 8.05293 49.8411 8.14533 50.2701 8.32903C50.7002 8.51383 51.0445 8.75913 51.3019 9.06603L50.7222 9.64683C50.2855 9.12433 49.6838 8.86363 48.9149 8.86363C48.2197 8.86363 47.6191 9.10783 47.112 9.59623C46.6049 10.0846 46.3519 10.7193 46.3519 11.4992C46.3519 12.2791 46.6049 12.9138 47.112 13.4022C47.6191 13.8906 48.2197 14.1348 48.9149 14.1348C49.6519 14.1348 50.2668 13.8895 50.7585 13.3978C51.0775 13.0777 51.2623 12.6322 51.3118 12.0613H48.9149V11.2682H52.1126C52.1456 11.4409 52.1599 11.607 52.1599 11.7665Z"/>
<path stroke-miterlimit="10" stroke-width="0.2" stroke="white" d="M57.231 9.00999H54.2258V11.1022H56.9362V11.8953H54.2258V13.9875H57.231V14.7993H53.3777V8.19929H57.231V9.00999Z"/>
<path stroke-miterlimit="10" stroke-width="0.2" stroke="white" d="M60.807 14.7993H59.9589V9.00999H58.1153V8.19929H62.6506V9.00999H60.807V14.7993Z"/>
<path stroke-miterlimit="10" stroke-width="0.2" stroke="white" d="M65.9318 14.7993V8.19929H66.7799V14.7993H65.9318Z"/>
<path stroke-miterlimit="10" stroke-width="0.2" stroke="white" d="M70.541 14.7993H69.6929V9.00999H67.8493V8.19929H72.3846V9.00999H70.541V14.7993Z"/>
<path stroke-miterlimit="10" stroke-width="0.2" stroke="white" d="M80.9699 13.9468C80.3209 14.6134 79.5146 14.9467 78.5499 14.9467C77.5852 14.9467 76.7789 14.6134 76.131 13.9468C75.482 13.2802 75.1586 12.464 75.1586 11.4993C75.1586 10.5346 75.482 9.71838 76.131 9.05178C76.7789 8.38518 77.5852 8.05078 78.5499 8.05078C79.5091 8.05078 80.3143 8.38628 80.9655 9.05618C81.6167 9.72608 81.9423 10.5401 81.9423 11.4993C81.9423 12.464 81.6178 13.2802 80.9699 13.9468ZM76.7569 13.3935C77.2453 13.8885 77.8426 14.1349 78.5499 14.1349C79.2572 14.1349 79.8556 13.8874 80.3429 13.3935C80.8313 12.8985 81.0766 12.2671 81.0766 11.4993C81.0766 10.7315 80.8313 10.1001 80.3429 9.60508C79.8556 9.11008 79.2572 8.86368 78.5499 8.86368C77.8426 8.86368 77.2453 9.11118 76.7569 9.60508C76.2696 10.1001 76.0243 10.7315 76.0243 11.4993C76.0243 12.2671 76.2696 12.8985 76.7569 13.3935Z"/>
<path stroke-miterlimit="10" stroke-width="0.2" stroke="white" d="M83.1325 14.7993V8.19929H84.1643L87.3719 13.333H87.4082L87.3719 12.0614V8.19929H88.22V14.7993H87.3345L83.9784 9.41589H83.9421L83.9784 10.6875V14.7993H83.1325Z"/>
<g filter="url(#filter0_ii_6220_387430)">
<path fill="url(#paint0_linear_6220_387430)" d="M11.48 8.79319C11.1599 9.13199 10.9707 9.65779 10.9707 10.3387V34.6663C10.9707 35.3483 11.1599 35.873 11.48 36.2118L11.5614 36.291L25.1893 22.6631V22.5025V22.3419L11.5614 8.71289L11.48 8.79319Z"/>
<path fill="url(#paint1_linear_6220_387430)" d="M29.7314 27.2071L25.1895 22.663V22.5024V22.3418L29.7325 17.7988L29.8348 17.8571L35.2171 20.9151C36.7538 21.7885 36.7538 23.2174 35.2171 24.0919L29.8348 27.1499L29.7314 27.2071Z"/>
<g filter="url(#filter1_i_6220_387430)">
<path fill="url(#paint2_linear_6220_387430)" d="M29.8351 27.1484L25.1887 22.502L11.4805 36.2113C11.9865 36.7481 12.8236 36.8141 13.7663 36.2795L29.8351 27.1484Z"/>
</g>
<path fill="url(#paint3_linear_6220_387430)" d="M29.8351 17.8552L13.7663 8.72515C12.8236 8.18945 11.9865 8.25655 11.4805 8.79335L25.1898 22.5027L29.8351 17.8552Z"/>
</g>
<defs>
<filter color-interpolation-filters="sRGB" filterUnits="userSpaceOnUse" height="28.293" width="25.3984" y="8.35547" x="10.9707" id="filter0_ii_6220_387430">
<feFlood result="BackgroundImageFix" flood-opacity="0"/>
<feBlend result="shape" in2="BackgroundImageFix" in="SourceGraphic" mode="normal"/>
<feColorMatrix result="hardAlpha" values="0 0 0 0 0 0 0 0 0 0 0 0 0 0 0 0 0 0 127 0" type="matrix" in="SourceAlpha"/>
<feOffset dy="-0.15"/>
<feComposite k3="1" k2="-1" operator="arithmetic" in2="hardAlpha"/>
<feColorMatrix values="0 0 0 0 0 0 0 0 0 0 0 0 0 0 0 0 0 0 0.12 0" type="matrix"/>
<feBlend result="effect1_innerShadow_6220_387430" in2="shape" mode="normal"/>
<feColorMatrix result="hardAlpha" values="0 0 0 0 0 0 0 0 0 0 0 0 0 0 0 0 0 0 127 0" type="matrix" in="SourceAlpha"/>
<feOffset dy="0.15"/>
<feComposite k3="1" k2="-1" operator="arithmetic" in2="hardAlpha"/>
<feColorMatrix values="0 0 0 0 1 0 0 0 0 1 0 0 0 0 1 0 0 0 0.25 0" type="matrix"/>
<feBlend result="effect2_innerShadow_6220_387430" in2="effect1_innerShadow_6220_387430" mode="normal"/>
</filter>
<filter color-interpolation-filters="sRGB" filterUnits="userSpaceOnUse" height="14.1465" width="18.3545" y="22.502" x="11.4805" id="filter1_i_6220_387430">
<feFlood result="BackgroundImageFix" flood-opacity="0"/>
<feBlend result="shape" in2="BackgroundImageFix" in="SourceGraphic" mode="normal"/>
<feColorMatrix result="hardAlpha" values="0 0 0 0 0 0 0 0 0 0 0 0 0 0 0 0 0 0 127 0" type="matrix" in="SourceAlpha"/>
<feOffset dy="-0.15"/>
<feComposite k3="1" k2="-1" operator="arithmetic" in2="hardAlpha"/>
<feColorMatrix values="0 0 0 0 0 0 0 0 0 0 0 0 0 0 0 0 0 0 0.08 0" type="matrix"/>
<feBlend result="effect1_innerShadow_6220_387430" in2="shape" mode="normal"/>
</filter>
<linearGradient gradientUnits="userSpaceOnUse" y2="28.5415" x2="5.52109" y1="10.0813" x1="23.9813" id="paint0_linear_6220_387430">
<stop stop-color="#00A0FF"/>
<stop stop-color="#00A1FF" offset="0.0066"/>
<stop stop-color="#00BEFF" offset="0.2601"/>
<stop stop-color="#00D2FF" offset="0.5122"/>
<stop stop-color="#00DFFF" offset="0.7604"/>
<stop stop-color="#00E3FF" offset="1"/>
</linearGradient>
<linearGradient gradientUnits="userSpaceOnUse" y2="22.5024" x2="10.6019" y1="22.5024" x1="37.2174" id="paint1_linear_6220_387430">
<stop stop-color="#FFE000"/>
<stop stop-color="#FFBD00" offset="0.4087"/>
<stop stop-color="#FFA500" offset="0.7754"/>
<stop stop-color="#FF9C00" offset="1"/>
</linearGradient>
<linearGradient gradientUnits="userSpaceOnUse" y2="50.0596" x2="2.27744" y1="25.0252" x1="27.3118" id="paint2_linear_6220_387430">
<stop stop-color="#FF3A44"/>
<stop stop-color="#C31162" offset="1"/>
</linearGradient>
<linearGradient gradientUnits="userSpaceOnUse" y2="11.8735" x2="19.2065" y1="0.694931" x1="8.02801" id="paint3_linear_6220_387430">
<stop stop-color="#32A071"/>
<stop stop-color="#2DA771" offset="0.0685"/>
<stop stop-color="#15CF74" offset="0.4762"/>
<stop stop-color="#06E775" offset="0.8009"/>
<stop stop-color="#00F076" offset="1"/>
</linearGradient>
</defs>
</svg>